<svg width="206" height="206" viewBox="0 0 206 206" fill="none" xmlns="http://www.w3.org/2000/svg">
<rect width="206" height="206" rx="40" fill="#EF402B"/>
<path d="M97.6641 53.2854C120.674 53.2856 139.327 71.9394 139.327 94.9495C139.327 117.959 120.674 136.612 97.6641 136.613C74.654 136.613 56.0001 117.96 56 94.9495C56 71.9393 74.6539 53.2854 97.6641 53.2854ZM97.6641 63.8381C80.4818 63.8381 66.5527 77.7672 66.5527 94.9495C66.5529 112.132 80.4819 126.061 97.6641 126.061C114.846 126.061 128.775 112.131 128.775 94.9495C128.775 77.7673 114.846 63.8383 97.6641 63.8381Z" fill="white"/>
<rect x="78.1973" y="81.6675" width="38.9346" height="10.5524" fill="white"/>
<rect x="78.1973" y="97.678" width="38.9346" height="10.5524" fill="white"/>
<rect x="90.9336" y="134.065" width="13.4634" height="38.9346" fill="white"/>
<path d="M155.34 34V67.4766H141.876V47.4629H121.863V34H155.34Z" fill="white"/>
<rect x="140.369" y="40.8391" width="13.4634" height="32.8647" transform="rotate(45 140.369 40.8391)" fill="white"/>
<rect x="78.1973" y="160.264" width="13.4634" height="38.9346" transform="rotate(-90 78.1973 160.264)" fill="white"/>
</svg>
