<svg width="169" height="93" viewBox="0 0 169 93" fill="none" xmlns="http://www.w3.org/2000/svg">
<path d="M50.8463 60.0636C71.814 72.9106 76.4431 92.3953 76.4431 92.3953C76.4431 92.3953 46.5617 90.7366 25.5917 77.8896C4.62159 65.0426 -0.00512695 45.558 -0.00512695 45.558C-0.00512695 45.558 29.8763 47.2166 50.8463 60.0636Z" fill="#4D361E"/>
<path d="M117.985 60.0636C97.0178 72.9106 92.3887 92.3953 92.3887 92.3953C92.3887 92.3953 122.27 90.7366 143.24 77.8896C164.208 65.0426 168.837 45.558 168.837 45.558C168.837 45.558 138.956 47.2166 117.985 60.0636Z" fill="#4D361E"/>
<path d="M104.921 38.2369C102.932 33.6861 101.547 29.4286 100.58 25.573C96.2714 26.1719 90.8071 26.6808 84.4698 26.6839C84.4533 26.6839 84.4344 26.6839 84.4179 26.6839C84.4014 26.6839 84.3825 26.6839 84.366 26.6839C78.0287 26.6808 72.5644 26.1719 68.2562 25.573C67.2889 29.4271 65.904 33.6861 63.915 38.2369C61.5132 43.7341 58.6984 48.5843 55.8884 52.7425C60.7558 55.3305 66.9279 59.1722 72.647 64.55C77.0968 68.733 80.072 72.7174 82.0798 75.9804V52.8325C79.9941 52.2367 78.5336 50.8729 78.5336 49.281C78.5336 47.1429 81.1691 45.4113 84.4179 45.4113C87.6668 45.4113 90.3022 47.1444 90.3022 49.281C90.3022 50.8713 88.8417 52.2367 86.7561 52.8325V75.9804C88.7615 72.7174 91.739 68.733 96.1888 64.55C101.908 59.1722 108.08 55.3305 112.947 52.7425C110.14 48.5843 107.325 43.7341 104.921 38.2369Z" fill="#4D361E"/>
<path d="M84.4203 18.6207C91.8255 18.6207 97.8285 14.6729 97.8285 9.80312C97.8285 4.93331 91.8255 0.985542 84.4203 0.985542C77.0151 0.985542 71.012 4.93331 71.012 9.80312C71.012 14.6729 77.0151 18.6207 84.4203 18.6207Z" fill="#4D361E"/>
</svg>
