<svg width="1043" height="858" viewBox="0 0 1043 858" fill="none" xmlns="http://www.w3.org/2000/svg">
<path d="M313.889 554.524C443.316 675.11 471.889 858 471.889 858C471.889 858 287.442 842.431 158 721.845C28.5592 601.258 0 418.369 0 418.369C0 418.369 184.448 433.937 313.889 554.524Z" fill="#C5A976"/>
<path d="M728.316 554.524C598.889 675.11 570.315 858 570.315 858C570.315 858 754.763 842.431 884.204 721.845C1013.63 601.258 1042.2 418.369 1042.2 418.369C1042.2 418.369 857.757 433.937 728.316 554.524Z" fill="#C5A976"/>
<path d="M647.666 349.654C635.389 306.939 626.841 266.977 620.869 230.786C594.276 236.408 560.547 241.185 521.429 241.214C521.327 241.214 521.211 241.214 521.109 241.214C521.007 241.214 520.89 241.214 520.788 241.214C481.671 241.185 447.941 236.408 421.348 230.786C415.377 266.962 406.828 306.939 394.551 349.654C379.726 401.253 362.351 446.779 345.006 485.809C375.051 510.101 413.149 546.161 448.451 596.638C475.918 635.901 494.283 673.301 506.676 703.928V486.654C493.802 481.061 484.787 468.26 484.787 453.318C484.787 433.249 501.055 416.996 521.109 416.996C541.163 416.996 557.43 433.264 557.43 453.318C557.43 468.245 548.416 481.061 535.541 486.654V703.928C547.92 673.301 566.3 635.901 593.767 596.638C629.069 546.161 667.167 510.101 697.212 485.809C679.881 446.779 662.507 401.253 647.666 349.654Z" fill="#C5A976"/>
<path d="M521.122 165.53C566.832 165.53 603.887 128.475 603.887 82.7649C603.887 37.0551 566.832 0 521.122 0C475.413 0 438.357 37.0551 438.357 82.7649C438.357 128.475 475.413 165.53 521.122 165.53Z" fill="#C5A976"/>
</svg>
