<svg width="206" height="206" viewBox="0 0 206 206" fill="none" xmlns="http://www.w3.org/2000/svg">
<rect width="206" height="206" rx="40" fill="#C41E34"/>
<path d="M51.6406 55.1035L94.4313 80.6426V148.972L51.6406 134.427V55.1035Z" fill="white"/>
<path d="M140.943 55.1035L98.1527 80.6426V148.972L140.943 134.427V55.1035Z" fill="white"/>
<path d="M151.429 60.177V140.008L96.7988 158.386V158.444L96.7139 158.414L96.6299 158.444V158.386L42 140.008V60.177L48.0889 55.2727V135.442L96.7139 152.493L145.34 135.442V55.2727L151.429 60.177Z" fill="white"/>
<path d="M151.429 60.177V140.008L96.7988 158.386V158.444L96.7139 158.414L96.6299 158.444V158.386L42 140.008V60.177L48.0889 55.2727V135.442L96.7139 152.493L145.34 135.442V55.2727L151.429 60.177Z" fill="white"/>
<path d="M163.775 53.7505C163.775 50.5746 166.35 48 169.526 48C172.702 48 175.276 50.5746 175.276 53.7505V60.1776H163.775V53.7505Z" fill="white"/>
<path d="M175.274 136.288L169.355 152.524L163.773 136.288V63.5603H175.274V136.288Z" fill="white"/>
</svg>
